<svg xmlns="http://www.w3.org/2000/svg" viewBox="0 0 132 100" role="img" aria-label="全世界株式を表す地球儀と、米国集中型インデックスを表す棒グラフの比較"><title>全世界株式を表す地球儀と、米国集中型インデックスを表す棒グラフの比較</title><rect width="132" height="100" fill="#fbfaf7"/>
<circle cx="38" cy="52" r="22" fill="none" stroke="#b8912f" stroke-width="2.2"/>
<line x1="16" y1="52" x2="60" y2="52" stroke="#b8912f" stroke-width="1.3"/>
<path d="M38 30 C 26 30 26 74 38 74" fill="none" stroke="#b8912f" stroke-width="1.3"/>
<path d="M38 30 C 50 30 50 74 38 74" fill="none" stroke="#b8912f" stroke-width="1.3"/>
<circle cx="29" cy="43" r="2.4" fill="#e7d6a6" stroke="#8f6f22" stroke-width="1"/>
<circle cx="47" cy="45" r="2.4" fill="#e7d6a6" stroke="#8f6f22" stroke-width="1"/>
<circle cx="33" cy="62" r="2.4" fill="#e7d6a6" stroke="#8f6f22" stroke-width="1"/>
<circle cx="45" cy="61" r="2.4" fill="#e7d6a6" stroke="#8f6f22" stroke-width="1"/>
<line x1="66" y1="16" x2="66" y2="86" stroke="#e7e5df" stroke-width="1.4" stroke-dasharray="3 4"/>
<rect x="82" y="52" width="11" height="24" fill="#e7d6a6" stroke="#8f6f22" stroke-width="1.6"/>
<rect x="96" y="38" width="11" height="38" fill="#b8912f" stroke="#8f6f22" stroke-width="1.6"/>
<rect x="110" y="46" width="11" height="30" fill="#e7d6a6" stroke="#8f6f22" stroke-width="1.6"/>
<path d="M101.5 30 l1.6 3.3 3.6 0.5 -2.6 2.6 0.6 3.6 -3.2 -1.7 -3.2 1.7 0.6 -3.6 -2.6 -2.6 3.6 -0.5 z" fill="#8f6f22"/>
</svg>
