<svg xmlns="http://www.w3.org/2000/svg" viewBox="0 0 132 100" role="img" aria-label="車の維持費の内訳を表す自動車とレシート"><title>車の維持費の内訳を表す自動車とレシート</title><rect width="132" height="100" fill="#fbfaf7"/>
<path d="M14 66 L14 56 Q14 50 20 50 L28 50 L34 40 Q36 38 40 38 L58 38 Q62 38 64 40 L70 50 L78 50 Q84 50 84 56 L84 66 Z" fill="#e7d6a6" stroke="#b8912f" stroke-width="2.2" stroke-linejoin="round"/>
<path d="M37 50 L41 42 L57 42 L61 50 Z" fill="#fbfaf7" stroke="#b8912f" stroke-width="1.6" stroke-linejoin="round"/>
<circle cx="27" cy="66" r="7" fill="#fbfaf7" stroke="#8f6f22" stroke-width="2.4"/>
<circle cx="71" cy="66" r="7" fill="#fbfaf7" stroke="#8f6f22" stroke-width="2.4"/>
<line x1="8" y1="66" x2="91" y2="66" stroke="#b8912f" stroke-width="1.6"/>
<rect x="98" y="20" width="24" height="34" rx="2" fill="#fbfaf7" stroke="#b8912f" stroke-width="2"/>
<line x1="102" y1="28" x2="118" y2="28" stroke="#b8912f" stroke-width="1.6"/>
<line x1="102" y1="34" x2="118" y2="34" stroke="#e7e5df" stroke-width="1.6"/>
<line x1="102" y1="40" x2="118" y2="40" stroke="#e7e5df" stroke-width="1.6"/>
<line x1="102" y1="46" x2="112" y2="46" stroke="#8f6f22" stroke-width="1.8"/>
<text x="110" y="16" text-anchor="middle" font-family="serif" font-size="12" font-weight="700" fill="#8f6f22">¥</text>
<line x1="10" y1="82" x2="122" y2="82" stroke="#e7e5df" stroke-width="1.5"/></svg>
