<svg xmlns="http://www.w3.org/2000/svg" viewBox="0 0 132 100" role="img" aria-label="NISAとiDeCoの選択を表す2つの貯金箱と鍵"><title>NISAとiDeCoの選択を表す2つの貯金箱と鍵</title><rect width="132" height="100" fill="#fbfaf7"/>
<rect x="26" y="46" width="30" height="34" rx="4" fill="none" stroke="#b8912f" stroke-width="2.4"/>
<rect x="22" y="40" width="38" height="8" rx="3" fill="#e7d6a6" stroke="#b8912f" stroke-width="2"/>
<rect x="37" y="30" width="10" height="10" rx="2" fill="none" stroke="#b8912f" stroke-width="2"/>
<circle cx="41" cy="58" r="6" fill="#e7d6a6" stroke="#8f6f22" stroke-width="1.6"/>
<text x="41" y="61" text-anchor="middle" font-family="serif" font-size="7" font-weight="700" fill="#8f6f22">¥</text>
<rect x="76" y="46" width="30" height="34" rx="4" fill="none" stroke="#8f6f22" stroke-width="2.4"/>
<rect x="72" y="40" width="38" height="8" rx="3" fill="#e7e5df" stroke="#8f6f22" stroke-width="2"/>
<circle cx="91" cy="58" r="6" fill="#e7e5df" stroke="#8f6f22" stroke-width="1.6"/>
<path d="M87 58 h8 v6 a4 4 0 0 1 -8 0 z" fill="#8f6f22"/>
<path d="M88 58 v-4 a3 3 0 0 1 6 0 v4" fill="none" stroke="#8f6f22" stroke-width="2"/>
<path d="M56 34 q10 -8 20 0" fill="none" stroke="#b8912f" stroke-width="2" stroke-linecap="round"/>
<path d="M76 34 l-4 -3 M76 34 l-1 5" stroke="#b8912f" stroke-width="2" fill="none" stroke-linecap="round"/></svg>
