<svg xmlns="http://www.w3.org/2000/svg" viewBox="0 0 132 100" role="img" aria-label="市場の買い物かごと魚、野菜を表すイラスト"><title>市場の買い物かごと魚、野菜を表すイラスト</title><rect width="132" height="100" fill="#fbfaf7"/>
<path d="M22 56 L34 56 L38 84 L74 84 L78 56 L90 56" fill="none" stroke="#b8912f" stroke-width="2.4" stroke-linejoin="round" stroke-linecap="round"/>
<path d="M34 56 Q56 34 78 56 Z" fill="none" stroke="#8f6f22" stroke-width="2.4" stroke-linejoin="round"/>
<line x1="30" y1="56" x2="82" y2="56" stroke="#b8912f" stroke-width="2.4"/>
<g stroke="#8f6f22" stroke-width="1.8" stroke-linecap="round">
<line x1="42" y1="62" x2="45" y2="80"/>
<line x1="56" y1="62" x2="56" y2="80"/>
<line x1="70" y1="62" x2="67" y2="80"/>
</g>
<ellipse cx="102" cy="34" rx="16" ry="9" fill="#e7d6a6" stroke="#b8912f" stroke-width="2" stroke-linejoin="round"/>
<path d="M118 34 L128 27 L128 41 Z" fill="#e7d6a6" stroke="#b8912f" stroke-width="2" stroke-linejoin="round"/>
<circle cx="97" cy="32" r="1.6" fill="#8f6f22"/>
<path d="M90 34 Q94 30 90 26" fill="none" stroke="#8f6f22" stroke-width="1.4"/>
<circle cx="18" cy="30" r="10" fill="#e7e5df"/>
<path d="M18 22 Q22 26 18 30 Q14 26 18 22 Z" fill="#8f6f22"/>
<circle cx="30" cy="20" r="7" fill="#e7e5df"/>
<path d="M30 14 Q33 17 30 20 Q27 17 30 14 Z" fill="#b8912f"/>
<line x1="10" y1="90" x2="122" y2="90" stroke="#e7e5df" stroke-width="1.6"/>
</svg>
