<svg xmlns="http://www.w3.org/2000/svg" viewBox="0 0 132 100" role="img" aria-label="通知をオフにしたスマートフォンの中で、資産推移のグラフだけが静かに上向きに動いている図"><title>通知をオフにしたスマートフォンの中で、資産推移のグラフだけが静かに上向きに動いている図</title><rect width="132" height="100" fill="#fbfaf7"/>
<rect x="26" y="20" width="34" height="66" rx="5" fill="none" stroke="#b8912f" stroke-width="2.2"/>
<line x1="36" y1="24" x2="50" y2="24" stroke="#e7e5df" stroke-width="1.6" stroke-linecap="round"/>
<rect x="38" y="80" width="10" height="2.4" rx="1.2" fill="#e7e5df"/>
<polyline points="32,66 40,52 46,58 53,36" fill="none" stroke="#e7d6a6" stroke-width="2.4" stroke-linecap="round" stroke-linejoin="round" stroke-dasharray="4 4"/>
<path d="M100 18c-5.5 0-9 4.3-9 9.6 0 5.6-1.2 9-3.4 11.4h24.8c-2.2-2.4-3.4-5.8-3.4-11.4 0-5.3-3.5-9.6-9-9.6z" fill="#e7d6a6" stroke="#b8912f" stroke-width="2"/>
<rect x="97" y="40" width="6" height="3" rx="1.5" fill="#b8912f"/>
<line x1="84" y1="12" x2="116" y2="44" stroke="#8f6f22" stroke-width="2.6" stroke-linecap="round"/>
</svg>
