<svg xmlns="http://www.w3.org/2000/svg" viewBox="0 0 132 100" role="img" aria-label="20万円のラインを超える所得ゲージと電卓"><title>20万円のラインを超える所得ゲージと電卓</title><rect width="132" height="100" fill="#fbfaf7"/>
<rect x="16" y="26" width="34" height="50" rx="4" fill="#fbfaf7" stroke="#b8912f" stroke-width="2.2"/>
<rect x="21" y="31" width="24" height="10" rx="1.5" fill="#e7d6a6"/>
<g fill="#8f6f22">
<circle cx="24" cy="50" r="2.2"/><circle cx="33" cy="50" r="2.2"/><circle cx="42" cy="50" r="2.2"/>
<circle cx="24" cy="58" r="2.2"/><circle cx="33" cy="58" r="2.2"/><circle cx="42" cy="58" r="2.2"/>
<circle cx="24" cy="66" r="2.2"/><circle cx="33" cy="66" r="2.2"/><circle cx="42" cy="66" r="2.2"/>
</g>
<line x1="60" y1="50" x2="118" y2="50" stroke="#8f6f22" stroke-width="1.6" stroke-dasharray="3.5 3.5"/>
<text x="88" y="45" text-anchor="middle" font-family="serif" font-size="9" font-weight="700" fill="#8f6f22">20万円ライン</text>
<rect x="68" y="20" width="16" height="66" fill="#e7d6a6" stroke="#b8912f" stroke-width="2"/>
<rect x="68" y="20" width="16" height="30" fill="#b8912f"/>
<rect x="90" y="34" width="16" height="52" fill="#e7d6a6" stroke="#b8912f" stroke-width="2"/>
<rect x="90" y="34" width="16" height="16" fill="#b8912f"/>
<line x1="14" y1="90" x2="118" y2="90" stroke="#e7e5df" stroke-width="1.5"/>
</svg>
