<svg xmlns="http://www.w3.org/2000/svg" viewBox="0 0 132 100" role="img" aria-label="複業の選択肢を比較する三叉路の道標"><title>複業の選択肢を比較する三叉路の道標</title><rect width="132" height="100" fill="#fbfaf7"/>
<ellipse cx="65" cy="90" rx="15" ry="4" fill="#e7e5df"/>
<rect x="63" y="22" width="4" height="68" rx="2" fill="#8f6f22"/>
<path d="M67,26 H92 L100,32 L92,38 H67 Z" fill="#b8912f"/>
<path d="M67,42 H42 L34,48 L42,54 H67 Z" fill="#8f6f22"/>
<path d="M67,58 H88 L96,64 L88,70 H67 Z" fill="#e7d6a6" stroke="#b8912f" stroke-width="1.6" stroke-linejoin="round"/>
<g stroke="#b8912f" stroke-width="1.8" stroke-linecap="round" fill="none">
<path d="M18 88 Q26 84 34 88"/>
<path d="M14 82 Q22 78 30 82"/>
</g>
<circle cx="16" cy="90" r="2.2" fill="#8f6f22"/>
<circle cx="28" cy="86" r="2.2" fill="#8f6f22"/>
<circle cx="12" cy="84" r="2.2" fill="#8f6f22"/>
<line x1="10" y1="94" x2="122" y2="94" stroke="#e7e5df" stroke-width="1.6"/>
</svg>
