<svg xmlns="http://www.w3.org/2000/svg" viewBox="0 0 132 100" role="img" aria-label="雪国の冬を表す雪の結晶と街並み"><title>雪国の冬を表す雪の結晶と街並み</title><rect width="132" height="100" fill="#fbfaf7"/>
<g stroke="#b8912f" stroke-width="2.2" stroke-linecap="round">
<line x1="52" y1="16" x2="52" y2="50"/><line x1="35" y1="24" x2="69" y2="42"/><line x1="35" y1="42" x2="69" y2="24"/>
<path d="M52 20 l-4 4 M52 20 l4 4"/><path d="M52 46 l-4 -4 M52 46 l4 -4"/>
<path d="M39 26 l-1 5.5 M39 26 l5.5 1"/><path d="M65 40 l1 -5.5 M65 40 l-5.5 -1"/>
<path d="M65 26 l5.5 -1 M65 26 l-1 5.5"/><path d="M39 40 l-5.5 1 M39 40 l1 -5.5"/></g>
<circle cx="86" cy="26" r="2.4" fill="#8f6f22"/><circle cx="98" cy="40" r="2" fill="#e7d6a6"/><circle cx="80" cy="46" r="1.8" fill="#e7d6a6"/>
<path d="M14 82 L14 70 L26 60 L38 70 L38 82 Z" fill="#e7d6a6"/>
<path d="M46 82 L46 66 L62 54 L78 66 L78 82 Z" fill="#b8912f"/>
<path d="M86 82 L86 70 L98 60 L110 70 L110 82 Z" fill="#e7d6a6"/>
<line x1="10" y1="82" x2="122" y2="82" stroke="#8f6f22" stroke-width="1.6"/></svg>
